<svg xmlns="http://www.w3.org/2000/svg" viewBox="0 0 128 160" x="0px" y="0px"><g><path d="M51.017,67.363l-.092-.076a6.952,6.952,0,0,1-1.594-2.2.6.6,0,0,1-.054-.206.616.616,0,0,1,.358-.911c.992-.293,2.038-.445,2.8.4.5.548,1.031,1.041,1.556,1.551.337.33.613.7.928,1.046a6.271,6.271,0,0,1,4.212-2.386,18.611,18.611,0,0,1,7.119.673,4.836,4.836,0,0,1,3.144-.309c.043-.445.092-.889.147-1.329a14.243,14.243,0,0,1,.292-2.217.61.61,0,0,1-.032-.32c.032-.249.054-.52.092-.781a12.064,12.064,0,0,0-2.337-.124c-.645.054-1.279.114-1.919.168.222.135.434.271.64.417a.672.672,0,0,1,.287.7,1.552,1.552,0,0,1-.125.4c.2.4.033.954-.509.884-1.5-.179-3-.352-4.5-.656-.9-.179-1.713-.266-2.158-.83A76.764,76.764,0,0,0,49.765,63.2a11.623,11.623,0,0,0-4.191,2.283,1.862,1.862,0,0,1,.764.661c.006.006.006.006.006.011,1.632.065,2.992.96,4.64,1.2A.065.065,0,0,1,51.017,67.363Zm-.8,3.361a.8.8,0,0,1-.385.146c-.179.239-.049.494.336.385.276-.075.52-.238.8-.314.482-.141.976-.141,1.464-.233-.337-.1-.754-.212-1.22-.331-.006.006-.011.006-.022.011a5.02,5.02,0,0,0-.542.217,1.462,1.462,0,0,1-.309.1C50.274,70.719,50.128,70.8,50.215,70.724Zm51.727-11.911c0,.011.005.016.005.027a.922.922,0,0,1-.065-.081c-.347.206-.694.412-1.041.629a.67.67,0,0,1-.569.368c-3.958,2.576-7.623,5.731-11.965,7.487a7.212,7.212,0,0,1,.119,1.34A39.961,39.961,0,0,0,96.5,63.557a48.51,48.51,0,0,0,5.459-4.7A.4.4,0,0,1,101.942,58.813ZM18.1,73.2a.8.8,0,0,1,.212-.282,2.5,2.5,0,0,0-1.665-.639,4.88,4.88,0,0,0,.027,1.084,5.267,5.267,0,0,1,1.139.331.914.914,0,0,1,.092-.223c.038-.059.081-.119.119-.178,0,0,.071-.114.082-.109A.04.04,0,0,1,18.1,73.2Zm.884.873a.816.816,0,0,1-.033.114,4.753,4.753,0,0,1,.879.591c.558.5.623,1.2.959,1.8.1-.049.2-.1.3-.152-.158-.472-.369-.9-.553-1.383-.212-.542-.646-.726-1.063-1.106l-.244-.227a1.729,1.729,0,0,1-.125.216C19.079,73.95,18.981,74.14,18.981,74.069Zm-5.308.011a3.665,3.665,0,0,1-1.469.857c-.027.048-.049.1-.076.151a.646.646,0,0,1,.141.131A5.081,5.081,0,0,0,13.673,74.08Zm.911.813a2.1,2.1,0,0,1,.624-.26,1.37,1.37,0,0,1,.271-.824c-.087-.689-.358-2.185.32-2.581a1.52,1.52,0,0,1,.916-.184,11.8,11.8,0,0,1,.5-6.913c.769-1.935,1.984-4.863,4.158-5.654,2.835-1.03,7.14-.954,9.732,1.024a4.541,4.541,0,0,1,.455.136c1.93.721,2.776,2.651,3,4.57.731.12,1.463.255,2.184.434.765-.688,1.453-1.42,2.245-2.206,1.111-1.112,2.114-2.31,3.665-2.733a6.462,6.462,0,0,1,.065-.726c.141-.949.992-1.117,1.746-1.518a.616.616,0,0,1,.428-.066.626.626,0,0,1,.651.6c.01.3.016.651.038.992.8-.222,1.566-.509,2.353-.737a14.6,14.6,0,0,1,1.6-.347c-.136-.461-.109-.949-.222-1.426a3.793,3.793,0,0,1,.162-2.1c.385-1.063,1.746-.911,2.684-1.035A1.918,1.918,0,0,1,52.546,52c.482-.483,1.713-.309,2.3-.163.666.168,1.642-.032,2.174.5.352.358.238.824.325,1.263a4.5,4.5,0,0,1,1.03-.406c.5-.1.976-.049,1.475-.109a9.992,9.992,0,0,1,2.483-.027.29.29,0,0,1,.016-.038c.168-.542.949-.65,1.415-.775a46.706,46.706,0,0,1,6.869-1.171c.515-.114,1.03-.2,1.583-.3.353-.06,1.909-.141,2.142-.629A2.887,2.887,0,0,1,72.194,49.1a2.826,2.826,0,0,1,.244-2.808,1.531,1.531,0,0,1,1.187-.716.519.519,0,0,1,.135-.043.032.032,0,0,1,.022-.006c0-.119-.011-.233,0-.347a3.678,3.678,0,0,1,.195-.873,14.954,14.954,0,0,1-1.865-.368c-1.052-.293-.423-1.632-.054-2.18.677-1,2.884-.607,3.871-.39,1.225.276,3.09.054,4.039,1.046a.647.647,0,0,1,.1.759c-.423.927-1.5,1.106-2.4,1.236a2.9,2.9,0,0,0-.028.315c2.863-.58,5.742-1.144,8.529-1.9,3.29-.9,6.516-1.892,9.813-2.695a25.6,25.6,0,0,1-4.05-.374c-.786-.157-.423-1.361.363-1.2,2.532.509,5.216.227,7.753.645a42.88,42.88,0,0,0,6.62.417c.542,0,.542,1.247,0,1.247a48.618,48.618,0,0,1-6.94-.461c.005.076.016.152.016.228,5.308.683,10.708.981,15.983,1.811a3.678,3.678,0,0,1,1.61-.038.6.6,0,0,1,.434.423c.347,1.377-.564,2.732-1.014,3.968-.4,1.079-2.342,2.532-2.841,3.6,1.2.152,2.386.477,3.156.613.612.1,1.415.19,2.217.32a9.713,9.713,0,0,1,2.25.569.4.4,0,0,1,.352.163,1.673,1.673,0,0,1,.412.347c2.863,3.806,1.925,10.74-1.344,14.063-1.838,1.871-4.614,1.095-7.092,1.095-2.2,0-3.61.049-5.226-1.5-1.692.683-3.361,1.556-5.058,2.157-2.581.917-5.319,1.247-7.829,2.305-2.353.992-4.907,1.534-7.319,2.369-1.128.4-2.2,1.133-3.356,1.426a13.953,13.953,0,0,0-2.89.916c-.336.417-.775.455-1.3.64-.216.081-1.409.271-1.48.45a.606.606,0,0,1-.352.368,4.938,4.938,0,0,1-2.212.141H73.652c-.428,0-.932.071-1.4.049a9.959,9.959,0,0,1-3.177,6.549A8.378,8.378,0,0,1,61.66,85.52c-2.256-.3-4.365-1.735-6.517-2.543a1.342,1.342,0,0,1-.206.7,3.57,3.57,0,0,1,.547.987.627.627,0,0,1-.162.607,5.032,5.032,0,0,1-2.375,1.187,21.593,21.593,0,0,1-3.041,1.161c-1.865.4-4.495.612-6.094,1.68a.6.6,0,0,1-.358.109,6.874,6.874,0,0,1-3.459-.58c-.428-.255-.4-.575-.629-.96-.369-.634-.862.32-1.193.412-1.138.315-3-.537-4.125-.748a.53.53,0,0,1-.4-.287c-2.423-.407-4.993-.8-7.433-1.047a35.419,35.419,0,0,1-8.094-1.241c-1.149-.4-12.28-3.535-11.7-5.243a.656.656,0,0,1-1.171.119c-.97-.222-1.128-1.019-1.057-2.13a13.675,13.675,0,0,1,.168-1.627.362.362,0,0,1-.249-.325c0-1.084-.277-1.686.048-2.451a.712.712,0,0,1,.543-.374c3.28-.363,6.229-1.778,9.52-1.995a.519.519,0,0,1,.569.39.612.612,0,0,1,.325.5c.082,1.052.51,2.028-.336,2.879C14.714,74.763,14.649,74.823,14.584,74.893Zm.58,3.492s-.011,0-.011.011a.31.31,0,0,0-.048.043,1.407,1.407,0,0,1-.272.217c.19.336.385.667.608.992.558.824.715.981,1.7.981h1.149v-.054c0-.022-.206-.114-.3-.309a5.676,5.676,0,0,0-.948-1.095,6.116,6.116,0,0,0-1.079-.884,3.1,3.1,0,0,1-.3-.2c-.017,0-.022.021-.038.032-.109.054-.212.109-.315.168-.011.006-.108.087-.141.1Zm18.558,6.977a.313.313,0,0,1,.19-.114c.2-.048.379-.081.564-.108,0-.032-.006-.054-.006-.087,0-1.447-.157-3.144,1.35-3.833a5.9,5.9,0,0,1,.624-.244c-.851,0-1.941.071-2.174.971a26.6,26.6,0,0,0-.542,3.4A.018.018,0,0,0,33.722,85.362Zm86.344-19.778c2.478-2.8,3.931-8.858,1.5-12.1a2,2,0,0,0-.775-.586c-3.7-.45-4.76,4.75-4.76,7.292a8.272,8.272,0,0,0,2.4,6.165A2.623,2.623,0,0,0,120.066,65.584Zm-1.887-13.266c-.547-.06-1.062-.109-1.453-.174a22.715,22.715,0,0,0-3.551-.52c-.011,0-.016-.005-.027-.005a3.3,3.3,0,0,0-2.586.851c-2.364,2.618-4.456,7.9-2.418,11.233.868.179,1.735.342,2.613.466.743.109.488,1.171-.2,1.209a.421.421,0,0,1-.146.06c-.136.043-.277.092-.412.136,1.4.948,3.068.742,4.787.742.58,0,1.306.076,2.044.1a10.445,10.445,0,0,1-1.589-9.786A8.548,8.548,0,0,1,118.179,52.318Zm-2.3-6.7c.292-.526.8-1.415.677-1.795h-.038c-.211-.038-.428-.065-.639-.1l-.109.033a15.128,15.128,0,0,1-2.613.569c-1.388.255-.954-.125-1.426,1.372a14.189,14.189,0,0,1-1.214,3.4,5.228,5.228,0,0,1-1.47,1.442c-1.165.83-1.252,2.31-1.181,3.7a15.306,15.306,0,0,1,2.418-3.258,3.217,3.217,0,0,1,2.325-.71,2.043,2.043,0,0,1,.656-.982A13.211,13.211,0,0,0,115.881,45.617Zm-5.01-1.675a1.208,1.208,0,0,1,.9-.8c-4.034-.472-8.111-.765-12.123-1.28a6.742,6.742,0,0,1-.157.727c1.871.141,3.736.33,5.59.585A22.543,22.543,0,0,1,110.7,44.24c.022.011.043.027.065.038C110.8,44.164,110.833,44.05,110.871,43.942Zm-.407,1.42a.682.682,0,0,1-.395-.043c-1.665-.716-4.229-.8-5.986-1.02-1.659-.206-3.329-.374-5-.5-.1.244-.206.488-.32.732a3.79,3.79,0,0,0-.271.769l.466.065a1.436,1.436,0,0,1,1.328-1.008c.748-.054.786,1.008.147,1.2.477.07.948.135,1.425.206.331-.976.955-1.508,2.066-.917.5.266.325.808-.19.808a1.613,1.613,0,0,0-.536-.016c-.055.022-.347.228-.2.314a2.938,2.938,0,0,0,.737.082l.9.13c.6.081,1.193.157,1.8.233,1.2.141,2.407.26,3.616.325C110.2,46.278,110.34,45.817,110.464,45.362Zm-2.889,4.869a20.71,20.71,0,0,0,1.935-2.294c-2.217-.146-4.435-.45-6.647-.775-.021.455-.016.905-.01,1.111a6.23,6.23,0,0,1,3.529.2c1.415.525.987,1.621.119,2.32.12.081.233.157.336.228a.645.645,0,0,1,.169.173A3.742,3.742,0,0,1,107.575,50.231Zm-.9,4.809c-.033-.629-.065-1.285-.038-1.931-.4.131-.759.32-1.144.44a3.079,3.079,0,0,1,.141.347.725.725,0,0,1,.027.254.681.681,0,0,1,.054.326,1.644,1.644,0,0,0,.325.265C106.247,54.844,106.458,54.958,106.675,55.04Zm-.092,8.338c-.06-.152-.114-.3-.163-.45-.255.092-.51.179-.764.249C105.965,63.242,106.274,63.307,106.583,63.378Zm-.2-5.465a13.662,13.662,0,0,1,.488-1.561,3.284,3.284,0,0,1-1.182-.391.791.791,0,0,0-.076-.032,4.669,4.669,0,0,1-.168.7,7.282,7.282,0,0,1-.493.9,8.92,8.92,0,0,1,1.127.206A.566.566,0,0,1,106.382,57.913Zm-.249,3.8c-.017-.108-.027-.211-.038-.319-.25-.006-.689-.071-.895.075-.005.017-.011.033-.016.055-.027.092-.022.189-.043.282a1.388,1.388,0,0,1-.066.216A8.446,8.446,0,0,0,106.133,61.713Zm-.065-1.832c.021-.331.059-.661.113-.992a.576.576,0,0,1-.433.043,4.942,4.942,0,0,0-1.036-.179,3.332,3.332,0,0,1-.8-.157c-.163.184-.325.369-.494.553.4.081.8.168,1.2.249C105.119,59.5,105.585,59.789,106.068,59.881Zm-.006-7.872c-.265-.163-.547-.3-.818-.461-.207-.125-.44-.363-.7-.276-.309.1-.6.2-.9.281a6.455,6.455,0,0,1,1.057.868A3.119,3.119,0,0,0,106.062,52.009Zm-.813-1.9a2.251,2.251,0,0,0,.651-.477,5.344,5.344,0,0,0-3.037-.049c0,.293.006.591.033.889a.086.086,0,0,1,.033-.011c.742-.1,1.4-.623,2.168-.412C105.146,50.063,105.2,50.09,105.249,50.106Zm-1.095,16.655c1.344-.521,2.64-1.22,3.968-1.8a70.912,70.912,0,0,0-7.606-1.393.578.578,0,0,1-.1.293c-2.147,3.356-5.812,5.448-9.639,6.923.011.033.016.06.027.087a44.38,44.38,0,0,0,4.608-1.556C98.217,68.138,101.3,67.872,104.154,66.761Zm.152-6.154c-.006,0-.011-.005-.017-.005-.6-.1-1.16-.282-1.762-.358a.655.655,0,0,1-.114-.027c-.135.146-.281.287-.422.428.276.071.547.158.824.223a6.805,6.805,0,0,1,1.138.455,1.4,1.4,0,0,1,.044-.206A1.133,1.133,0,0,1,104.306,60.607Zm-.076-4.3a3.768,3.768,0,0,0,.265-1.133,1.651,1.651,0,0,1-1.268.1c-.163-.07-.32-.157-.488-.228-.06-.027-.13-.048-.2-.07.124.65.764.851,1.312,1.122a.888.888,0,0,1,.33.287A.538.538,0,0,1,104.23,56.308Zm-.456-2.212a4.293,4.293,0,0,0,.532-.173c-.575-1.177-2.158-1.665-3.253-2.055-.721-.26-1.475-.331-2.2-.531-.01,0-.016,0-.021,0a7.178,7.178,0,0,1-4.05-.222,3.648,3.648,0,0,0,2.353,1.735,4.485,4.485,0,0,1,2.255,1.279c1.117,1.166,1.144,2.586,1.366,4.1.624-.45,1.231-.922,1.893-1.307a1.477,1.477,0,0,1-.168-.087,3.016,3.016,0,0,1-.759-.71,1.788,1.788,0,0,1-.2-2.076,1.328,1.328,0,0,1,1.573-.2c.168.065.336.146.5.222.065.032.125.065.19.092C103.78,54.145,103.78,54.123,103.774,54.1ZM100.462,62.1a14.462,14.462,0,0,0,2.591.184c-.1-.049-.2-.1-.3-.141a6,6,0,0,0-.933-.233,3.524,3.524,0,0,0-.716-.179.664.664,0,0,1-.189-.049C100.76,61.827,100.614,61.968,100.462,62.1Zm1.144-15.126c-.548-.076-1.1-.158-1.643-.233a20.99,20.99,0,0,0,.352,3.719c.342.065.683.124,1.03.189a4.887,4.887,0,0,1-.482-.954.632.632,0,0,1,.287-.7c.12-.081.25-.151.38-.222A13.026,13.026,0,0,1,101.606,46.978ZM99.627,58.959a24.737,24.737,0,0,0-.483-2.629c-.439-1.48-1.328-1.979-2.77-2.38a4.282,4.282,0,0,1-2.543-1.914A24.847,24.847,0,0,1,86.057,53.8a.624.624,0,0,1,0-1.247A23.05,23.05,0,0,0,93.316,50.9c-.038-.113-.07-.233-.1-.352-.77-.314-1.534-.661-2.3-.965a10.717,10.717,0,0,1-3.475-1.946c-.781-.754-2.049-2.267-3.177-2.662a.631.631,0,0,1-.331-.261q-1.576.342-3.171.662a14.327,14.327,0,0,1,.78,2.375c.006,0,.011-.006.017-.006.314-.1.634-.135.943-.238.77-.25,1.095.959.336,1.2-.26.087-.52.119-.775.2-.006,0-.222.276-.239.276.065.542.12.781.163,1.171.157,1.372.038.971,1.068,1.681a1.968,1.968,0,0,1,.83.9,3.569,3.569,0,0,1,.374,2.955c4.819-.862,10.035.173,10.978,5.5.288-.184.575-.368.873-.542C97.258,60.179,98.477,59.632,99.627,58.959Zm-.461,4.527a.59.59,0,0,1-.266-.081,28.193,28.193,0,0,1-2.5,1.767c-2.863,1.8-5.411,3.823-8.62,5.01a1.354,1.354,0,0,1-.13.038,2.069,2.069,0,0,1-.206.1,13.856,13.856,0,0,1-2.527.548,4.332,4.332,0,0,1,.049.5C89.976,69.96,96.13,67.948,99.166,63.486Zm-.4-16.9c-.125-.016-.249-.032-.368-.049a10.716,10.716,0,0,0,.336,1.876C98.721,47.791,98.743,47.173,98.77,46.587ZM97.127,45.7c.3-1.718,1.269-3.134,1.35-4.858-3.486.754-6.836,1.893-10.257,2.836a29.6,29.6,0,0,0,3.708,2.938,12.8,12.8,0,0,0,5.411,1.47A5.282,5.282,0,0,1,97.127,45.7Zm.7,4.565a6.819,6.819,0,0,0-.157-.965,1.019,1.019,0,0,1-.228.033,12.7,12.7,0,0,1-5.59-1.345c-1.794-.965-3.079-2.494-4.754-3.616a.611.611,0,0,1-.255-.331c-.342.087-.683.179-1.025.255-.038.011-.076.016-.114.027,1.556.992,2.836,2.684,4.435,3.546C92.281,49.016,95.268,50.561,97.827,50.263ZM88.068,65.991A33.112,33.112,0,0,0,94.1,62.158c-.537-5.552-6.392-5.882-10.843-4.776.965.753,1.16,1.333.932,1.8a8.03,8.03,0,0,1,.315,1.7c.032.472.227.792.021,1.258-.325.743-1.789.71-2.418.916-.011.082-.027.169-.038.244a14.772,14.772,0,0,1,5.525,1.47.641.641,0,0,1,.217.238.719.719,0,0,1,.162.369C87.987,65.557,88.025,65.769,88.068,65.991Zm-1,1.936a2.085,2.085,0,0,0,0-.25.855.855,0,0,1-.13.022,37.063,37.063,0,0,0-4.424.732c-.081.021-1.171.282-1.171.282,0,.065.022.13.027.2,1.019-.124,2.049-.417,3.052-.591C85.3,68.171,86.181,68.068,87.065,67.927Zm-.157-1.47c-.049-.238-.092-.482-.136-.721-1.843-1.062-7.14-2.163-7.14.862,0,1.4.228,2.895.141,4.305.19-.033.385-.065.575-.1-.033-1.166-.835-2.89.807-3.313A37.18,37.18,0,0,1,86.908,66.457Zm-.879,6.051a.788.788,0,0,1-.065-.13c-.368.108-.737.211-1.095.314l-.092.016a3.512,3.512,0,0,1-.19.418A14.887,14.887,0,0,0,86.029,72.508Zm-.124-3.053c0-.037-.006-.07-.006-.108-.6.087-1.2.174-1.805.287-.835.163-1.692.385-2.543.5.017.13.017.254.027.379,1.274-.32,2.549-.716,3.839-.949A4.41,4.41,0,0,0,85.905,69.455Zm-2.489,3.2a1.751,1.751,0,0,0,.32-.835,4.65,4.65,0,0,0-.038-.726,7.727,7.727,0,0,0-.862.249c-.125.044-.244.081-.368.125-.038.629-.055,1.258-.055,1.892A1.4,1.4,0,0,0,83.416,72.654Zm-.1-11.157h.011c-.114-.45-.158-.922-.228-1.388-.293.157-.624.3-.96.444a5.265,5.265,0,0,1,.082,1.2,4.779,4.779,0,0,0,.628-.125C83,61.583,83.161,61.545,83.319,61.5Zm-3.432-5.3c1.144-.3,3.567-.179,3.063-2.033-.342-1.252-1.122-1.024-1.681-1.48a33.761,33.761,0,0,0-4.467.694c-1.073.271-2.423.38-3.248,1.155a1.306,1.306,0,0,1,.754,1.155q2.5.252,5,.439C79.48,56.14,79.681,56.162,79.887,56.194Zm1.447,3.367c.543-.2,1.865-.656,1.437-.992a7.834,7.834,0,0,0-2.944-1.09.832.832,0,0,1-.168-.032c0-.006,0-.006-.005-.006-1.773-.32-3.616-.363-5.427-.52-.58,1.019-3,.694-3.844.677-.38,0-.488.884-1.144.933-1.079.081-2.158.152-3.242.152a.325.325,0,0,1-.212-.087.849.849,0,0,1-.119-.027.724.724,0,0,1-.309.027c-1.079-.152-2.174-.054-3.253-.206a6.013,6.013,0,0,1-2.141-.342c-.548-.319-.293-.959-.879-.992-.753-.038-.71.358-1.019.982-.363.721-1.437.086-1.079-.629.016-.033.027-.06.044-.092a47.081,47.081,0,0,1-5.5,1.463c-1.958.369-3.806,1.009-5.726,1.448.082.488.06.965.125,1.464a.685.685,0,0,1-.618.77H45.3c-.244.13-.434.357-.678.477a6.373,6.373,0,0,0-.678.336.565.565,0,0,1-.368.1.617.617,0,0,1-.841-.569c-.005-.585-.049-1.193-.076-1.794-2.065.775-2.813,3.128-4.543,4.369-2.109,1.508-4.24,2.961-6.3,4.538-1.87,1.432-3.67,2.966-5.627,4.272-1.2.8-2.408,1.958-3.692,2.82a1.262,1.262,0,0,1,.547.558.633.633,0,0,1,0,.629c-.4.591-1.09.792-1.09,1.648a.779.779,0,0,0,1.356.472,8.852,8.852,0,0,1,.7-.672c.651-.613,1-1.773,2.115-1.405.238.076.6.152.948.266.982-.889,2.093-1.475,3.161-2.277,1.4-1.052,2.662-2.19,4.137-3.15,2.835-1.843,5.074-4.44,7.736-6.511,2.679-2.082,4.75-4.153,8.171-4.7,2.916-.466,5.747-1.382,8.68-1.8A.289.289,0,0,1,58.981,60a.665.665,0,0,1,.412-.574,5.964,5.964,0,0,1,4.083-.065.662.662,0,0,1,.287-.093c1.426-.135,2.819-.32,4.261-.347a22.535,22.535,0,0,1,2.418.179,1.231,1.231,0,0,1,.77-.189c2.2.081,4.376.558,6.577.558A11.435,11.435,0,0,1,81.334,59.561Zm-.151,13.245c0-.32.01-.64.027-.954a14.685,14.685,0,0,1-2.044.385,2.381,2.381,0,0,1-.765.092C78.716,73.375,80.3,73.077,81.183,72.806Zm-.006,1.317v-.005a2.951,2.951,0,0,1-.813.152,5.86,5.86,0,0,1-1.8-.022A2.491,2.491,0,0,1,77.106,72.1c-.32-.092-.629-.2-.906-.288-1.35-.45-2.786-.623-4.169-1.013a3.123,3.123,0,0,1,.054.314q.123.837.2,1.708a14.624,14.624,0,0,1,4.6,1.138,7.036,7.036,0,0,1,2.164,1.2c.471-.212,1.035-.31,1.512-.478C80.922,74.546,81.177,74.579,81.177,74.123ZM80.792,63.3a11.256,11.256,0,0,0,.033-2.179c0-.971-.526-.277-1.339-.337a38.171,38.171,0,0,0-3.926-.227,14.826,14.826,0,0,1-2.884-.271c-.786-.125-1.155-.206-1.35-.082,0,.006,0,.006-.011.011a.645.645,0,0,0-.195.412,16.02,16.02,0,0,1,6.159.981,6.7,6.7,0,0,1,3.036,1.752C80.467,63.335,80.624,63.318,80.792,63.3ZM80.7,51.5c-.125-.683-.125-1.485-.2-2.082-.765.055-1.876.158-2.25-.477a2.22,2.22,0,0,1,.092-1.957c.309-.455.949-.466,1.54-.434-.1-.287-.206-.569-.331-.845a.41.41,0,0,1-.032-.087c-1.4.276-2.8.558-4.191.856a6.97,6.97,0,0,1,.4,2.131c.2-.005.433-.043.558-.043a6.684,6.684,0,0,1,.737.021,3.348,3.348,0,0,1,1.285.537c.7.391.071,1.469-.634,1.079a3.479,3.479,0,0,0-.531-.249l.065.244a5.133,5.133,0,0,1,.282.927,4.079,4.079,0,0,0,.151.813c.006.005.006.005.006.011C78.662,51.759,79.67,51.624,80.7,51.5Zm-.412-3.323c-.022-.114-.049-.228-.07-.342l-.862-.016v.217a1.215,1.215,0,0,1,0,.135A3.813,3.813,0,0,0,80.288,48.176ZM78.542,64.538a1.429,1.429,0,0,1,.532-.71c-.83-.851-2.6-1.231-3.552-1.567a11.384,11.384,0,0,0-4.223-.4,7.169,7.169,0,0,0,.965.981,8.841,8.841,0,0,0,1.86,1.1,10.465,10.465,0,0,0,4.342.748c.017,0,.022,0,.038,0C78.515,64.636,78.531,64.576,78.542,64.538Zm.228,6.479c-.32-.092-.461-.971-.5-2.055a16.166,16.166,0,0,1-5.546-.927c-.879-.385-1.8-1.019-2.76-1.453a1.042,1.042,0,0,1-.125,0,1.317,1.317,0,0,0-.043.13.291.291,0,0,1-.022.06,6.989,6.989,0,0,1,1.816,2.586.681.681,0,0,1,.136.032C74.026,70.193,76.444,70.339,78.77,71.017Zm-.493-27.959a.994.994,0,0,1,.021-.141c-.618-.141-1.371-.087-1.9-.179a12.7,12.7,0,0,0-3.2-.282c-.049.114-.1.228-.152.336a.225.225,0,0,0,.06.006,2.579,2.579,0,0,1,.759.173,8.28,8.28,0,0,0,3.188.3.485.485,0,0,1,.157-.044A8.325,8.325,0,0,0,78.277,43.058Zm-.022,24.657c.011-.629.043-1.247.087-1.778a11.4,11.4,0,0,1-6.154-1.583,6.737,6.737,0,0,1-1.4-1.16c-.022.238-.027.471-.027.694a14.077,14.077,0,0,1-.163,1.664,18.961,18.961,0,0,0,3.362,1.6A18.556,18.556,0,0,0,78.255,67.715Zm-.938,8.035h.358a12.259,12.259,0,0,0-5.319-1.67c.017.548.011,1.09-.016,1.637a14.628,14.628,0,0,0,2.879.033Zm-.943-31a1.233,1.233,0,0,0,.038-.244c-.4-.01-.8-.027-1.193-.059a.3.3,0,0,1-.016.092,5.23,5.23,0,0,0-.163.721c.434-.092.873-.184,1.312-.271A.527.527,0,0,1,76.374,44.749Zm-.45,7.563c.173-.043.336-.075.5-.113-.14-.456-.157-.933-.319-1.388a4.243,4.243,0,0,1-.158-.532c-.016-.065-.027-.13-.043-.2,0-.011,0-.022-.011-.033a.543.543,0,0,1-.244-.222.4.4,0,0,1-.038.087c.006.032.022.054.027.086.1,1.681-1.7,1.838-3.388,2.034a.638.638,0,0,1-.353.146c-.39.043-.775.076-1.171.1-.921.244-1.5.732-1.165,1.892a9.172,9.172,0,0,1,2.472.054l.152.017C73.056,52.909,74.416,52.687,75.924,52.312ZM74.509,48.9a2.588,2.588,0,0,1-.125-.618,3.594,3.594,0,0,0-.049-.873c-.092-.363-.108-.585-.341-.585-.255,0-.429-.016-.553.244-.206.428-.564,1.225.01,1.534A3.344,3.344,0,0,0,74.509,48.9Zm-1.578,7.374a.652.652,0,0,1,.092-.456.569.569,0,0,0-.282-.217,15.425,15.425,0,0,0-2.228-.173c-.8,0-1.128-.13-1.383.542a.54.54,0,0,1-.173.867c-.651.3-1.643.147-2.19.591.661-.01,1.176-.043,1.81-.092a5.619,5.619,0,0,1,.787-.049c.021-.748.341-.894,1.008-.943C70.605,56.33,72.926,56.232,72.931,56.276Zm-5.14,26.609c2.782-2.424,3.741-6.5,3.34-10.014a9.6,9.6,0,0,0-1.084-3.66,4.55,4.55,0,0,0-2.538-2.141c-3.4-1.458-6.137,4.852-6.831,7.254-.938,3.231-.808,7.769,2.18,9.9a.7.7,0,0,1,.162.173A5.917,5.917,0,0,0,67.791,82.885Zm.651-28.127a6.264,6.264,0,0,1-.26-.862,5.248,5.248,0,0,0-1.215.233,4.773,4.773,0,0,0-.3.916,2.009,2.009,0,0,1-.96,1.117,9.708,9.708,0,0,1-3.1,1.024c.911.071,1.822.076,2.732.174a2.693,2.693,0,0,1,.938-1.117,2.624,2.624,0,0,1,.949-.369,5,5,0,0,1,.64-.027A2.647,2.647,0,0,1,68.442,54.758ZM68.2,52.643a1.431,1.431,0,0,1,.076-.184,11.653,11.653,0,0,0-1.946.352c-.564.157-2.716.483-2.852,1.079-.293,1.258-1.778,1.871-3.123,2.266.006,0,.011.006.017.011a1.343,1.343,0,0,1,.151.179A27.964,27.964,0,0,0,63.6,55.7c1.209-.423,1.675-.569,2.071-2.006C65.915,52.8,67.39,52.73,68.2,52.643Zm-3.806,8.6c.017-.043.033-.092.055-.135a5.851,5.851,0,0,0-4.207-.656c.412.585,2.721.542,3.187.618C63.763,61.128,64.083,61.188,64.4,61.247ZM59.832,73c1-2.093,2.435-5.552,4.712-6.859a14.193,14.193,0,0,0-4.63-.412c-5.877.776-6.457,11.928-6.506,13.164a1.693,1.693,0,0,1,.884.179c.558.287.737,1.708.8,2.564,1.854.6,3.768,1.621,5.682,2.256A11.08,11.08,0,0,1,59.832,73Zm1.562-18.775a8.389,8.389,0,0,0-1.155.059,9.652,9.652,0,0,0-2.141.38,7.565,7.565,0,0,0,.666.64c.006,0,.011-.006.017-.006A8.683,8.683,0,0,0,61.394,54.221Zm-3.833,1.615a.483.483,0,0,1,.081-.021,5.783,5.783,0,0,1-1.263-1.231,1.589,1.589,0,0,1-.385-1.171c.049-.314.293-.119-.569-.217-.326-.038-.591-.108-.911-.157-.006,0-1.041.032-1.052-.163.011.282.044.553.06.83.032.526,1.2.314,1.735.352a1.025,1.025,0,0,1,.878.672,5.293,5.293,0,0,0,.585,1.356C57,56.01,57.284,55.929,57.561,55.836Zm-2.483-.422a.211.211,0,0,1-.022-.055c-.076-.173-1.708-.184-2.033-.287a1.032,1.032,0,0,1-.575-.52,7.466,7.466,0,0,0-.927.13,2.1,2.1,0,0,1-.58.065c-.374,0-.325.135-.385.439a6.125,6.125,0,0,0,.06,1.578c.011.168.059.7.059.71a.615.615,0,0,1,.055.206c.114-.022.233-.049.347-.076a.017.017,0,0,0-.006-.016c-.065-.781-.336-1.99.765-2.115.7-.081,1.436-.016,2.147-.059A8,8,0,0,1,55.078,55.414Zm-1.09,13c.071-.131.141-.261.217-.385-.634-.613-1.193-1.291-1.822-1.9a13.668,13.668,0,0,0-1.035-1.074.9.9,0,0,0-.673-.065,5.479,5.479,0,0,0,1.437,1.643,5.13,5.13,0,0,1,1.041.818A8.876,8.876,0,0,0,53.988,68.415ZM51.375,85.736c.612-.238,2.955-.7,2.45-1.415-1.93.635-3.957.906-5.893,1.546-1.453.477-2.8,1.2-4.207,1.74.049.076.1.157.146.238a22.919,22.919,0,0,1,4.679-1.209A17.745,17.745,0,0,0,51.375,85.736Zm-1.063-1.843c1.545-.444,3.909-.119,3.492-2.282-.147-.749-.011-1.578-.721-1.329a41.525,41.525,0,0,1-7.531,2.2c-1.084.163-2.581-.086-2.581,1.063,0,.992.049,1.984.06,2.982,1.063-.434,2.033-1.079,3.145-1.415C47.558,84.7,48.935,84.283,50.312,83.893Zm3.112-14.188c.016-.049.038-.1.054-.141a.625.625,0,0,1-.119-.081.321.321,0,0,1-.043-.033.918.918,0,0,1-.163-.1l-.016-.016a9.022,9.022,0,0,0-2.993-.933c-1.393-.3-2.613-.981-4.023-.981h-.146a3.677,3.677,0,0,0,.412.2c.472.206.992.352,1.475.531a16,16,0,0,0,2.645.764A9.586,9.586,0,0,1,53.424,69.705Zm.987-13.066c-.6.022-1.209.108-1.816.07-.114-.01-.228-.01-.342-.01v.043a4.7,4.7,0,0,0,.033.488A21.453,21.453,0,0,1,54.411,56.639ZM52.746,72.1c.011-.06.022-.125.038-.185A12.607,12.607,0,0,0,51,72.275a.592.592,0,0,1,.114.157,3.272,3.272,0,0,1,1.54-.358A.694.694,0,0,1,52.746,72.1ZM52.2,76.715a32.949,32.949,0,0,1,.32-3.383c-.829.038-1.393.39-1.355,1.334A2.212,2.212,0,0,0,52.2,76.715Zm-.043,1.9c0-.2,0-.4,0-.607A1.2,1.2,0,0,1,52,77.978a2.849,2.849,0,0,1-1.48-1.182.581.581,0,0,1-.25.049,35.634,35.634,0,0,0-5.188.618,6.64,6.64,0,0,1-2.977.038.623.623,0,0,1-.433-.434c-.044-.254-.1-.52-.163-.791a.414.414,0,0,1-.119.027c-1.5.06-3.654,1.258-4.858-.119-.857.547-1.643,1.214-2.532,1.707a4.9,4.9,0,0,1,.027.564,16.244,16.244,0,0,1,4.722-.536h5.08a3.342,3.342,0,0,1,1.405.227,1.288,1.288,0,0,1,.493.607,3.079,3.079,0,0,1,2.31-.715A14.716,14.716,0,0,1,52.161,78.618Zm-1.377,1.138c.114-.038.228-.081.347-.13a10.882,10.882,0,0,0-2.483-.341,4.059,4.059,0,0,0-1.589.271,4.35,4.35,0,0,1,2.424.623Q50.132,79.976,50.784,79.756Zm-.862-5.34A3.218,3.218,0,0,1,50,73.879c-.13-.021-.26-.043-.39-.054a1.325,1.325,0,0,1-1,1.442,2.629,2.629,0,0,1-.775.223,1.011,1.011,0,0,0-.445.043,5.147,5.147,0,0,1-1.014.277A.39.39,0,0,1,46.3,75.8v.157a29.884,29.884,0,0,1,3.725-.352A4.384,4.384,0,0,1,49.922,74.416ZM49.7,72.567a.32.32,0,0,1-.038-.07,1.229,1.229,0,0,1-.45-.152,1.39,1.39,0,0,1-.488-2.017l-.944.277a2.045,2.045,0,0,1,.244,1.827A16.036,16.036,0,0,1,49.7,72.567Zm-1.334,1.448a.739.739,0,0,0,.027-.277,3.9,3.9,0,0,0-.661-.075,7.31,7.31,0,0,0-1.54.108,2.431,2.431,0,0,1,.287.759v.022c0-.109.7-.309,1.128-.309A1.478,1.478,0,0,0,48.366,74.015Zm-1.773-4.359c.309-.092.618-.184.922-.271-.288-.1-.564-.2-.83-.3A2.617,2.617,0,0,1,46.593,69.656ZM46.083,81.1l.6-.13a.978.978,0,0,1-.065-.092.418.418,0,0,1-.022-.055c-.178.006-.352.006-.531.011C46.073,80.933,46.078,81.02,46.083,81.1Zm.369-8.886c.716-.255.466-.813.065-1.236-.461.141-.927.287-1.388.439C45.4,71.825,45.953,72.389,46.452,72.215ZM45.2,69.748c-.038-.141-.082-.276-.12-.412a8.382,8.382,0,0,0-1.767-.152c-.754-.048-1.5-.065-2.255-.065a.631.631,0,0,1-.212-.038c-.125.1-.255.212-.374.326,1.448.092,2.863.352,4.316.5a.776.776,0,0,1,.206.06A.8.8,0,0,0,45.2,69.748Zm-.114-3.03c.011-.038.022-.071.032-.1a.666.666,0,0,1-.531-.331c-.683.558-1.366,1.122-2.093,1.643.45.016.9.032,1.334,0a4.322,4.322,0,0,1,1.063.07.847.847,0,0,1,.065-1.165A.784.784,0,0,1,45.086,66.718Zm-.033,9.422a5.005,5.005,0,0,0-.027-1.713,7.527,7.527,0,0,1-.3-.884.676.676,0,0,1,.146-.6,3.307,3.307,0,0,1-.9-1.014c0-.011,0-.016,0-.022-.813.423-1.583.938-2.4,1.329.233.406.45.775.563,1.041.163.374.559,2.119.884,2.092C43.7,76.319,44.376,76.232,45.053,76.14Zm-.4-14.741c-.049-.483-.092-.96-.163-1.442a.052.052,0,0,0,0-.027.7.7,0,0,1-.038-.315c-.027-.233-.06-.471-.081-.7-.1.048-.2.1-.309.14-.212.082-.141.711-.136.976,0,.618.022,1.231.044,1.849a.52.52,0,0,0,.092-.06A6.174,6.174,0,0,1,44.652,61.4Zm-.477,19.084c.152-.19.3-.39.439-.591-.222-.45-.667-.347-1.794-.347H38.753c-2.385,0-5.573-.184-6.858,2.152a10.41,10.41,0,0,1,1.155-.13,4.2,4.2,0,0,1,.228-.531c.666-1.312,2.429-1.3,3.713-1.3s2.868-.255,3.9.672A15.549,15.549,0,0,1,44.175,80.483ZM42.532,88.1c0-.016-.011-.027-.016-.044a.937.937,0,0,1-.07-.1,1.151,1.151,0,0,1-.656-.677c0-.217-.006-.439-.017-.651a2.742,2.742,0,0,0-.542.081c-.276.087-.547.2-.824.288l-.076.016a2.478,2.478,0,0,1,.38.775c.048.179.769.087,1.122.179A6.383,6.383,0,0,0,42.532,88.1ZM42.3,82.109a1.284,1.284,0,0,0-.976.261,1.945,1.945,0,0,0-.45.932c-.021.174-.108.45-.119.678.287.054.58.108.867.173A2.555,2.555,0,0,1,42.3,82.109Zm.884-11.152c-.77-.1-1.54-.211-2.315-.276l-.016.032c-.228.32-.093.857.157,1.432A23.157,23.157,0,0,0,43.183,70.957Zm-2.467,14.6a5.886,5.886,0,0,1,.8-.152c-.417-.092-.884-.168-1.3-.244a9.179,9.179,0,0,0-1.594-.385c-.846,0-2.4-.347-1.974,1.106a.553.553,0,0,1-.178.612.652.652,0,0,0,.043.2.488.488,0,0,1,.022.081l.151.033c.337.06.667.114,1,.168a1.589,1.589,0,0,1,.835-.71,1.806,1.806,0,0,1,1.095-.4A4.2,4.2,0,0,0,40.716,85.558Zm.423-10.48a6.611,6.611,0,0,0-.786-1.508h-.011a3.645,3.645,0,0,0-1.8,1.378,3.486,3.486,0,0,1-.862.6,2.925,2.925,0,0,0,1.67-.141A9.087,9.087,0,0,1,41.139,75.078Zm-.889,6.6a1.221,1.221,0,0,1-.152.011c-.3.016-.911.038-1.567.114a.628.628,0,0,1-.152.282c-.162.184-.135.5-.179.742a4.03,4.03,0,0,0-.043.678,4.616,4.616,0,0,1,1.334.168l.065.016a.93.93,0,0,1,.022-.113,4.918,4.918,0,0,1,.206-1.014A4.6,4.6,0,0,1,40.25,81.681Zm-.781-11.065c-.011,0-.027-.006-.038-.006a.525.525,0,0,1-.163-.032c-.379.385-.759.759-1.149,1.089A31.274,31.274,0,0,1,35,74.156c-1.231.8-2.288,1.762-3.454,2.64-1.122.841-2.385,1.556-3.448,2.472a.663.663,0,0,1,.033.212c0,.6-.646,1.117-.738,1.724-.076.477-.162.954-.227,1.431.211.017.417.011.639.038a4.718,4.718,0,0,0,.759.082,7.059,7.059,0,0,1,3.1-5.086c.5-.276.965-.786,1.518-.748,1.377-.705,2.543-1.8,3.925-2.521.96-.5,1.453-1.41,2.407-1.854A1.931,1.931,0,0,1,39.469,70.616ZM36.91,83.5a6.126,6.126,0,0,1,.141-1.432c-.634.19-1.138.467-1.22.895-.021.108-.1.672-.146,1.252A1.325,1.325,0,0,1,36.91,83.5Zm-1.621-17.68c.081-.054.152-.114.233-.173-.889-.169-1.778-.277-2.678-.413a6.556,6.556,0,0,0-2.185-.13c.369.1.732.223,1.106.32a19.394,19.394,0,0,0,2.787.548.63.63,0,0,1,.33.135C35.018,66.018,35.154,65.921,35.289,65.823ZM33.185,64a1.923,1.923,0,0,0-1.116-1.4,3.928,3.928,0,0,0-2.462-.39c-2.011.271-3.621,2.277-4.164,4.234a20.067,20.067,0,0,1,2.668-.585,3.066,3.066,0,0,1,3.166-2.093C31.911,63.839,32.551,63.915,33.185,64Zm-.406,14.98c0-.07,0-.287-.011-.5a8.077,8.077,0,0,0-1.529,1.111,7.537,7.537,0,0,0-1.29,2.608,3.343,3.343,0,0,0,.406-.19.019.019,0,0,1,.006-.016A4.877,4.877,0,0,1,32.779,78.981ZM32.6,83.942c.032-.369.076-.743.135-1.106-.525.049-1.04.168-1.572.179-.016,0-.027-.006-.043-.006-.434.293-1.025.342-1.415.7a.652.652,0,0,1-.206.13.107.107,0,0,1-.033.038h.477c.38,0,.738.027,1.112.027.341,0,.667.033,1,.022A3.03,3.03,0,0,1,32.6,83.942Zm-.152,1.675c.016-.141.027-.287.044-.434a3.825,3.825,0,0,0-.651,0c-.271.006-.51-.135-.786-.135-.542,0-1.036-.163-1.589-.136a.978.978,0,0,1-1.149-.938c-.222-.021-.445-.059-.656-.07a8.493,8.493,0,0,1-1-.065.707.707,0,0,1-.461-.011,13.817,13.817,0,0,1-4.9-.754,1.354,1.354,0,0,1-.765-.607,1.523,1.523,0,0,1-.786-.222,4.956,4.956,0,0,0-.667-.358.949.949,0,0,1-.26.043c-.542,0-1.8.017-2.743-.01-.672-.017-.8-.4-1.187-.873a11.325,11.325,0,0,1-1.307-2.006,9.066,9.066,0,0,0-1.074-1.5,12.968,12.968,0,0,1-.14,1.86c-.131.845-1.15,1.35-2,1.583a35.23,35.23,0,0,0,5.6,1.924A32.537,32.537,0,0,0,21.838,84.5c1.719.163,3.432.363,5.151.537,1.789.173,3.643.455,5.448.753A.894.894,0,0,1,32.448,85.617Zm-.043-17.723c.027-.022.054-.038.076-.054-.721-.3-1.513-.656-1.952-.119-.016.016-.022.038-.038.054a9.488,9.488,0,0,1,1.448.461s.01,0,.016,0C32.107,68.127,32.253,68.008,32.405,67.894Zm-3.367-6.853a8.788,8.788,0,0,1,1.784-.092c-.082-.081-.168-.163-.261-.239a5.565,5.565,0,0,0-3.16.19c-2.267.754-3.161,3.259-3.839,5.319-.884,2.694-.461,5.383.217,8.072.239-.162.477-.33.716-.5a3.06,3.06,0,0,1-.711-2.342,2.424,2.424,0,0,1,.1-.228,1.4,1.4,0,0,1-.2-.624,7.611,7.611,0,0,1,.342-3.323.236.236,0,0,1,0-.065C24.365,64.706,26.289,61.41,29.038,61.041Zm1.6,8.219a5.879,5.879,0,0,0-.9-.255,2.877,2.877,0,0,1-.634.369,5.893,5.893,0,0,0-1.079.662.721.721,0,0,1,.038.157c.011.217.277.5.483.7C29.249,70.355,29.943,69.808,30.637,69.26Zm-1.566-1.344a1.256,1.256,0,0,1,.059-.244c-.146-.965-1.3-.445-1.908-.3-.049.011-.109.022-.163.033a1.806,1.806,0,0,1,.342,1.523A7.7,7.7,0,0,0,29.071,67.916Zm-2.359,4.315c.282-.189.548-.395.824-.591a2.963,2.963,0,0,1-.58-.851,3.59,3.59,0,0,1-.8.38,3.308,3.308,0,0,1-.569.265,3.525,3.525,0,0,1-.466.13.387.387,0,0,0-.071.429,2.75,2.75,0,0,0,.125.412c.059.13.108.265.173.39.092.2.25.255.017.184a.691.691,0,0,1,.168.082C25.926,72.779,26.316,72.5,26.712,72.231Zm-.146,7.932c.049-.135.1-.266.152-.4-.028-.011-.055-.016-.087-.027-.25-.07-.6-.265-.83-.3-.141-.022-.732.949-.9,1.079a.871.871,0,0,0-.07.06.714.714,0,0,1,.1-.017c.439-.13.878-.287,1.317-.4A.62.62,0,0,1,26.566,80.163Zm-.542-11.152c.151-.911-.266-1.03-.846-1.263a3.452,3.452,0,0,0-.244,1.415c0,.227-.016.466-.027.7.287-.075.618-.1.905-.157A2.26,2.26,0,0,0,26.024,69.011Zm-.1,13.57a10.042,10.042,0,0,1,.217-1.084,5.811,5.811,0,0,1-1.274.341,12.486,12.486,0,0,1-1.7.027,2.02,2.02,0,0,1-.586.125.7.7,0,0,1-.043.152c.363.1.732.173,1.1.26A9.953,9.953,0,0,0,25.926,82.581Zm-.558-22.114a4.524,4.524,0,0,1,2.5-1.1,9.5,9.5,0,0,0-5.416.038c-4.543,1.648-5.205,8.03-4.4,11.993.206.081.407.168.585.244a3.362,3.362,0,0,1,1.253.943c.4.434.97.721,1.344,1.16a5.442,5.442,0,0,1,.927,1.849c.179-.163.364-.325.543-.482a.017.017,0,0,0-.006-.011C21.356,69.987,21.421,64.516,25.368,60.467ZM21.535,77.989c-.022,0-.049,0-.071.011a.64.64,0,0,1-.233-.06,8.063,8.063,0,0,1-.824,1.453,1.887,1.887,0,0,0-.64,1.464,2.091,2.091,0,0,0,.96.369.489.489,0,0,1,.135.027,1.789,1.789,0,0,1,.147-.136,1.925,1.925,0,0,1-.266-.965,2.983,2.983,0,0,1,.325-1.561A2.035,2.035,0,0,1,21.535,77.989Zm-1.508-.4a.783.783,0,0,1-.179-.168,7.383,7.383,0,0,1-.455-1.036,2.028,2.028,0,0,0-.922-.992c-.043.081-.092.163-.135.239a2.905,2.905,0,0,1,1.046,1.16,3.352,3.352,0,0,1,.125,1.762,2.22,2.22,0,0,0,.211-.315C19.838,78.027,19.93,77.805,20.027,77.588Zm-1.8,1.024a2.456,2.456,0,0,0,.043-1.29c-.168-.4-.645-.6-.959-.862-.038-.027-.082-.06-.136-.1a5.585,5.585,0,0,1-.862.688,5.781,5.781,0,0,1,1.605,1.242A3.593,3.593,0,0,0,18.222,78.612Zm-2.261-2.835a.958.958,0,0,0-.916.314l.228.163a.588.588,0,0,1,.124-.092A6.056,6.056,0,0,0,15.961,75.777Zm-1.447,1.534a.16.16,0,0,0,.027-.016,1.027,1.027,0,0,0-.635-.087,2.7,2.7,0,0,1,.3.364.487.487,0,0,0,.054-.06A1.775,1.775,0,0,1,14.514,77.311Zm-1.567-4.326a5.058,5.058,0,0,0,.677-.754,12.331,12.331,0,0,0-3.1.613c-.173.065-.352.135-.531.211a.487.487,0,0,1,.087.1.632.632,0,0,1,.173,1.231c-.385.13-.8.233-1.176.39-.114.049-.223.081-.336.125a10.067,10.067,0,0,1-.223,1.382,1.125,1.125,0,0,1,.358.759,7.449,7.449,0,0,0-.022.759,1.188,1.188,0,0,0,.331.13c-.016-.13-.032-.254-.054-.368-.1-.624.027-1.236-.119-1.849a.655.655,0,0,1,.851-.754.708.708,0,0,1,.157-.038c.737,0,.938-.179,1.225-.84a.62.62,0,0,1,.537-.309c-.271.022.271-.13.363-.184A3.947,3.947,0,0,0,12.947,72.985Zm-1.724,5.27c.011-.77.032-1.54-.027-2.31a2.59,2.59,0,0,1-.879.206c.038.548.022,1.1.114,1.654a10.071,10.071,0,0,1,.081,1.751A1.433,1.433,0,0,0,11.223,78.255ZM9.26,80.06c0-.206,0-.493,0-.813-.564-.19-1.274-.347-1.535-.938a1.91,1.91,0,0,1-.1-.906c.021-.325-.114-.189-.456-.292-.385-.125-.764-.261-1.144-.391-.113-.038-.227-.076-.341-.108a.359.359,0,0,1-.076,0c-.027.368-.157.721-.168,1.095-.011.4-.179.883.26.938a1.177,1.177,0,0,1,1.778.26,6.519,6.519,0,0,0,1.665,1.409A.487.487,0,0,1,9.26,80.06ZM7.449,75.143a2.063,2.063,0,0,1,.25-.992,1.146,1.146,0,0,0-.559.13.907.907,0,0,1-.368.108.127.127,0,0,1-.017.038c-.021.087-.043.179-.065.266a7.55,7.55,0,0,1-.238.775c.3.092.607.2.9.309C7.39,75.566,7.428,75.354,7.449,75.143Z"/><path d="M119.931,54.974c2.575.19,2.233,3.882,2.168,5.661-.184,1.848-1.334,4.12-3.573,3.556-1.669-.423-2.011-3.139-1.913-4.521C116.726,58.038,117.832,54.817,119.931,54.974Zm.921,5.661c.027-.759.288-4.489-.921-4.414a1.131,1.131,0,0,0-.575.223c.683,1.138.466,2.51.466,3.789A7.506,7.506,0,0,1,119.253,63C120.039,62.922,120.765,61.535,120.852,60.635Zm-2.282-.857a8.268,8.268,0,0,0-.092-2.223,5.39,5.39,0,0,0-.618,2.115,5.606,5.606,0,0,0,.374,2.515A7.827,7.827,0,0,0,118.57,59.778Z"/><path d="M78.786,57.707a.624.624,0,0,1-.016,1.247c-1.2-.016-3.557-.065-3.557-.065-1.084,0-1.084-1.247,0-1.247S77.588,57.691,78.786,57.707Z"/><path d="M64.793,73.429a5.325,5.325,0,0,0-.4,1.079,1.068,1.068,0,0,1,.233.038,1.958,1.958,0,0,1,.25.082c.027-.033.043-.065.07-.093a1.47,1.47,0,0,1,.184-.135A9.38,9.38,0,0,0,64.793,73.429Zm5.189-1.7c.986,2.418.217,5.389-.938,7.628a.751.751,0,0,1-.065.13.916.916,0,0,1-.1.141c-1.459,2.093-4.636,2.852-5.585-.227-.8-2.57-.591-5.894,1.312-7.954C66.192,69.732,68.892,69.071,69.982,71.727Zm-.819,2.613a4.675,4.675,0,0,0-.027-.531c-.3.233-.64.407-.96.64a2.582,2.582,0,0,1-.564.32,1.316,1.316,0,0,1,.266.558,1.92,1.92,0,0,1,1.16.271A7.606,7.606,0,0,0,69.163,74.34Zm-.423,2.483a.533.533,0,0,1-.325-.059c.027.038.027.07-.038.07h-.672a8.439,8.439,0,0,0,.531,1.323A10.913,10.913,0,0,0,68.74,76.823ZM68.605,72.6a.612.612,0,0,1,.195-.157,2.093,2.093,0,0,0-1.095-1.291,4.958,4.958,0,0,1-.271,1.985c-.06.152-.109.3-.158.455.2-.114.429-.336.559-.407A2.549,2.549,0,0,0,68.605,72.6Zm-1.014,6.685a.526.526,0,0,1-.136-.114,3.37,3.37,0,0,1-.661-1.166c-.049-.141-.076-.282-.12-.417-.01-.033-.027-.06-.037-.092a1.124,1.124,0,0,1-.185-.065c-.081.9-.309,1.827-.374,2.721a.877.877,0,0,1-.032.125A2.363,2.363,0,0,0,67.591,79.285Zm-1.036-3.3c.147-.211.19-.553-.146-.623a1.468,1.468,0,0,0-.434.005.263.263,0,0,0-.114.038C65.742,76.081,66.008,76.227,66.555,75.988Zm-.19-3.589a4.034,4.034,0,0,0,.1-.981,3.031,3.031,0,0,0-.379.309,6.2,6.2,0,0,0-.461.472c.157.352.314.721.455,1.095a1.961,1.961,0,0,1,.076-.287A4.649,4.649,0,0,0,66.365,72.4Zm-1.176,5.189a1.907,1.907,0,0,1-.38.114,4.687,4.687,0,0,0-.612.206s-.006,0-.006,0a3.209,3.209,0,0,0,.434,1.448,3.735,3.735,0,0,0,.255.341C64.967,79,65.113,78.287,65.189,77.588Zm-.434-1.171a2.4,2.4,0,0,1-.152-.58.463.463,0,0,0-.238-.087H64.2c-.006.125-.022.244-.022.374,0,.152-.011.314-.016.483C64.365,76.541,64.555,76.482,64.755,76.417Z"/></g><text x="0" y="143" fill="#000000" font-size="5px" font-weight="bold" font-family="'Helvetica Neue', Helvetica, Arial-Unicode, Arial, Sans-serif">Created by Hey Rabbit</text><text x="0" y="148" fill="#000000" font-size="5px" font-weight="bold" font-family="'Helvetica Neue', Helvetica, Arial-Unicode, Arial, Sans-serif">from the Noun Project</text></svg>